<?xml version="1.0" encoding="UTF-8" standalone="no"?>
<svg
   xmlns:dc="http://purl.org/dc/elements/1.1/"
   xmlns:cc="http://creativecommons.org/ns#"
   xmlns:rdf="http://www.w3.org/1999/02/22-rdf-syntax-ns#"
   xmlns:svg="http://www.w3.org/2000/svg"
   xmlns="http://www.w3.org/2000/svg"
   xmlns:sodipodi="http://sodipodi.sourceforge.net/DTD/sodipodi-0.dtd"
   xmlns:inkscape="http://www.inkscape.org/namespaces/inkscape"
   version="1.1"
   id="Capa_1"
   x="0px"
   y="0px"
   width="2000px"
   height="2000px"
   viewBox="0 0 2000 2000"
   style="enable-background:new 0 0 2000 2000;"
   xml:space="preserve"
   sodipodi:docname="base2.svg"
   inkscape:version="1.0.2 (e86c870879, 2021-01-15)"><metadata
   id="metadata535"><rdf:RDF><cc:Work
       rdf:about=""><dc:format>image/svg+xml</dc:format><dc:type
         rdf:resource="http://purl.org/dc/dcmitype/StillImage" /></cc:Work></rdf:RDF></metadata><defs
   id="defs533" /><sodipodi:namedview
   pagecolor="#ffffff"
   bordercolor="#666666"
   borderopacity="1"
   objecttolerance="10"
   gridtolerance="10"
   guidetolerance="10"
   inkscape:pageopacity="0"
   inkscape:pageshadow="2"
   inkscape:window-width="1920"
   inkscape:window-height="1031"
   id="namedview531"
   showgrid="false"
   inkscape:zoom="0.371"
   inkscape:cx="1021.5633"
   inkscape:cy="1107.8167"
   inkscape:window-x="0"
   inkscape:window-y="24"
   inkscape:window-maximized="1"
   inkscape:current-layer="g384"
   inkscape:document-rotation="0" />
<style
   type="text/css"
   id="style2">
	.st0{fill:#F6F6F6;}
	.st1{fill:#FFFFFF;stroke:#E6E6E6;stroke-miterlimit:10;}
	.st2{fill:none;}
	.st3{fill:#333333;}
	.st4{font-family:'Roboto-Medium';}
	.st5{font-size:42px;}
	.st6{fill:#808080;}
	.st7{font-family:'Roboto-Regular';}
	.st8{font-size:26px;}
	.st9{fill:none;stroke:#E6E6E6;stroke-width:3;stroke-miterlimit:10;}
	.st10{fill:none;stroke:#E6E6E6;stroke-width:3;stroke-miterlimit:10;stroke-dasharray:6.0388,6.0388;}
	.st11{fill:none;stroke:#F7931E;stroke-width:4;stroke-miterlimit:10;}
	.st12{fill:none;stroke:#F7931E;stroke-width:4;stroke-miterlimit:10;stroke-dasharray:5.9747,5.9747;}
	.st13{fill:none;stroke:#808080;stroke-miterlimit:10;}
	.st14{font-size:29px;}
	.st15{font-size:24px;}
	.st16{font-size:18px;}
	.st17{font-family:'Roboto-Bold';}
	.st18{font-size:26.6634px;}
	.st19{fill:#29ABE2;}
	.st20{font-size:36px;}
	.st21{fill:#666666;}
	.st22{font-size:34px;}
	.st23{font-size:30px;}
	.st24{font-size:28px;}
	.st25{fill:#F7931E;}
	.st26{fill:#F15A24;}
	.st27{font-size:150px;}
	.st28{fill:#3FA9F5;}
	.st29{font-size:110px;}
	.st30{fill:#CCCCCC;}
	.st31{fill:none;stroke:#999999;stroke-width:0.75;stroke-miterlimit:10;}
	.st32{fill:#B3B3B3;}
	.st33{fill:none;stroke:#E6E6E6;stroke-width:3;stroke-miterlimit:10;stroke-dasharray:6;}
	.st34{fill:none;stroke:#B3B3B3;stroke-miterlimit:10;}
	.st35{fill:#E6E6E6;}
	.st36{fill:#FFFFFF;stroke:#4D4D4D;stroke-width:3.7658;stroke-miterlimit:10;}
	.st37{font-size:24.7334px;}
	.st38{font-family:'Roboto-Black';}
	.st39{font-size:49px;}
	.st40{font-size:90px;}
	.st41{fill:none;stroke:#E6E6E6;stroke-width:3.7658;stroke-miterlimit:10;}
	.st42{fill:none;stroke:#CCCCCC;stroke-width:3.7658;stroke-miterlimit:10;}
	.st43{fill:none;stroke:#4D4D4D;stroke-width:3.7658;stroke-miterlimit:10;}
	.st44{fill:none;stroke:#666666;stroke-width:3.7658;stroke-miterlimit:10;}
	.rotateLeft {
		transform-box: fill-box;
		transform-origin: center;
		transform: rotate(90deg);
	}
	.rotateRight {
		transform-box: fill-box;
		transform-origin: center;
		transform: rotate(-90deg);
	}
   .blue {
      fill: blue;
   }
   .orange {
      fill: orange;
   }
</style>
<g
   id="g6">
	<rect
   x="-11"
   y="-17"
   class="st0"
   width="2028"
   height="2031"
   id="rect4" />
</g>
<path
   class="st1"
   d="M1929.4,1908.4h-878.8c-10.5,0-19-8.5-19-19v-796.7c0-10.5,8.5-19,19-19h878.8c10.5,0,19,8.5,19,19v796.7  C1948.4,1899.9,1939.9,1908.4,1929.4,1908.4z"
   id="path8" />
<path
   class="st1"
   d="M951.2,1048.3H72.4c-10.5,0-19-8.5-19-19V232.6c0-10.5,8.5-19,19-19h878.8c10.5,0,19,8.5,19,19v796.7  C970.1,1039.8,961.7,1048.3,951.2,1048.3z"
   id="path10" />
<rect
   x="59.7"
   y="78.7"
   class="st2"
   width="1440.1"
   height="57.1"
   id="rect12" />
<text
   transform="matrix(1 0 0 1 59.7245 110.7316)"
   class="st3 st4 st5"
   id="text14">{{ header.title }}</text>
<rect
   x="77.7"
   y="1932.7"
   class="st2"
   width="673.6"
   height="32.6"
   id="rect16" />
<text
   transform="matrix(1 0 0 1 77.7245 1952.2494)"
   class="st6 st7 st8"
   id="text18">Gráficos de las últimas 3 semanas, media móvil de 7 días.</text>
<path
   class="st1"
   d="M1929.4,1048.3h-878.8c-10.5,0-19-8.5-19-19V232.6c0-10.5,8.5-19,19-19h878.8c10.5,0,19,8.5,19,19v796.7  C1948.4,1039.8,1939.9,1048.3,1929.4,1048.3z"
   id="path20" />
<g
   id="g30">
	<g
   id="g28">
		<line
   class="st9"
   x1="378.1"
   y1="260.7"
   x2="378.1"
   y2="263.7"
   id="line22" />
		<line
   class="st10"
   x1="378.1"
   y1="269.8"
   x2="378.1"
   y2="894.8"
   id="line24" />
		<line
   class="st9"
   x1="378.1"
   y1="897.8"
   x2="378.1"
   y2="900.8"
   id="line26" />
	</g>
</g>
<g
   id="g40">
	<g
   id="g38">
		<line
   class="st9"
   x1="612.5"
   y1="260.7"
   x2="612.5"
   y2="263.7"
   id="line32" />
		<line
   class="st10"
   x1="612.5"
   y1="269.8"
   x2="612.5"
   y2="894.8"
   id="line34" />
		<line
   class="st9"
   x1="612.5"
   y1="897.8"
   x2="612.5"
   y2="900.8"
   id="line36" />
	</g>
</g>
<g
   id="g50">
	<g
   id="g48">
		<line
   class="st9"
   x1="144.5"
   y1="260.7"
   x2="144.5"
   y2="263.7"
   id="line42" />
		<line
   class="st10"
   x1="144.5"
   y1="269.8"
   x2="144.5"
   y2="894.8"
   id="line44" />
		<line
   class="st9"
   x1="144.5"
   y1="897.8"
   x2="144.5"
   y2="900.8"
   id="line46" />
	</g>
</g>
<line
   class="st13"
   x1="846.9"
   y1="260.7"
   x2="846.9"
   y2="900.8"
   id="line62" />
<line
   class="st13"
   x1="847.4"
   y1="901.6"
   x2="142.7"
   y2="901.6"
   id="line64" />
<text
   transform="matrix(1 0 0 1 869.7465 428.1479)"
   id="text78"><tspan
     x="0"
     y="0"
     class="st6 st7 st14"
     id="tspan66">5k</tspan><tspan
     x="0"
     y="96"
     class="st6 st7 st14"
     id="tspan68">4k</tspan><tspan
     x="0"
     y="192"
     class="st6 st7 st14"
     id="tspan70">3k</tspan><tspan
     x="0"
     y="288"
     class="st6 st7 st14"
     id="tspan72">2k</tspan><tspan
     x="0"
     y="384"
     class="st6 st7 st14"
     id="tspan74">1k</tspan><tspan
     x="14.7"
     y="480"
     class="st6 st7 st14"
     id="tspan76">0</tspan></text>
<text
   transform="matrix(1 0 0 1 139.6057 943.4149)"
   class="st6 st7 st15"
   id="text82">{{ weeks.first.fromFormatted }}</text>
<text
   transform="matrix(1 0 0 1 345.2953 943.4149)"
   class="st6 st7 st15"
   id="text80">{{ weeks.second.fromFormatted }}</text>
<text
   transform="matrix(1 0 0 1 579.2953 943.4149)"
   class="st6 st7 st15"
   id="text84">{{ weeks.third.fromFormatted }}</text>
<text
   transform="matrix(1 0 0 1 795.2953 943.4149)"
   class="st6 st7 st15"
   id="text86">{{ weeks.third.toFormatted }}</text>
<text
   transform="matrix(1 0 0 1 273.0515 280.415)"
   class="st6 st7 st16"
   id="text88">casos</text>
<text
   transform="matrix(1 0 0 1 508.0515 280.415)"
   class="st6 st7 st16"
   id="text90">casos</text>
<g
   id="g96">
	<path
   class="st6"
   d="M312,329.3h-61.4c-5.2,0-9.4-4.2-9.4-9.4v-22c0-5.2,4.2-9.4,9.4-9.4H312c5.2,0,9.4,4.2,9.4,9.4v22   C321.5,325.1,317.3,329.3,312,329.3z"
   id="path92" />
	<text
   transform="matrix(1 0 0 1 259.1067 318.3403)"
   class="st0 st17 st18"
   id="text94">{{ newCases.week1.value }}</text>
</g>
<g
   id="g102">
	<path
   class="st6"
   d="M546.4,329.3H485c-5.2,0-9.4-4.2-9.4-9.4v-22c0-5.2,4.2-9.4,9.4-9.4h61.4c5.2,0,9.4,4.2,9.4,9.4v22   C555.8,325.1,551.6,329.3,546.4,329.3z"
   id="path98" />
	<text
   transform="matrix(1 0 0 1 493.4172 318.3403)"
   class="st0 st17 st18"
   id="text100">{{ newCases.week2.value }}</text>
</g>
<text
   transform="matrix(1 0 0 1 740.0515 280.415)"
   class="st6 st7 st16"
   id="text104">casos</text>
<path
   class="st19"
   d="M781.9,338.8h-80.1c-5.2,0-9.4-4.2-9.4-9.4v-31.5c0-5.2,4.2-9.4,9.4-9.4h80.1c5.2,0,9.4,4.2,9.4,9.4v31.5  C791.4,334.6,787.1,338.8,781.9,338.8z"
   id="path106" />
<text
   transform="matrix(1 0 0 1 711.9634 326.3403)"
   class="st0 st17 st20"
   id="text108">{{ newCases.week3.value }}</text>
<text
   transform="translate(355.2807,1007.5854)"
   class="st21 st17 st22"
   id="text110">Casos positivos</text>
<text
   transform="matrix(1 0 0 1 1086.8108 548.0594)"
   id="text118"><tspan
     x="0"
     y="0"
     class="st21 st7 st23"
     id="tspan112"> </tspan><tspan
     x="7.4"
     y="0"
     class="st3 st17 st23"
     id="tspan114">{{ beds.available }} CAMAS disponibles</tspan></text>
<text
   transform="matrix(1 0 0 1 1098.811 892.0595)"
   class="st21 st7 st23"
   id="text120">completa</text>
<text
   transform="matrix(1 0 0 1 1350.811 958.0595)"
   id="text126"><tspan
     x="0"
     y="0"
     class="st21 st4 st24"
     id="tspan122">{{ vaccination.second.quantity }}</tspan><tspan
     x="0"
     y="35"
     class="st21 st7 st24"
     id="tspan124">personas</tspan></text>
{{#if beds.lastUpdate}}
<text
   transform="matrix(1 0 0 1 1684.8341 286.0595)"
   class="st21 st7 st8"
   id="text128">Última act. {{ beds.lastUpdate }}</text>
{{/if}}
<text
   class="st25 st4 st8"
   id="text130"
   x="1190.5892"
   y="705.05939">Objetivo al 31/03</text>
<text
   transform="matrix(1 0 0 1 1086.0698 456.778)"
   class="st26 st17 st27"
   id="text132">{{ beds.usedPercentage }}%</text>
<g
   id="g136">
	<text
   transform="matrix(1 0 0 1 1094.7666 992.5171)"
   class="st28 st17 st29"
   id="text134">{{ vaccination.second.percent }}%</text>
</g>
<text
   transform="matrix(1 0 0 1 1516.8109 892.0595)"
   class="st21 st7 st23"
   id="text138">parcial</text>
<text
   transform="matrix(1 0 0 1 1768.8109 958.0595)"
   id="text144"><tspan
     x="0"
     y="0"
     class="st21 st4 st24"
     id="tspan140">{{ vaccination.first.quantity }}</tspan><tspan
     x="0"
     y="35"
     class="st21 st7 st24"
     id="tspan142">personas</tspan></text>
<g
   id="g148">
	<text
   transform="matrix(1 0 0 1 1512.7666 992.5171)"
   class="st30 st17 st29"
   id="text146">{{ vaccination.first.percent }}%</text>
</g>
<text
   transform="matrix(1 0 0 1 1091.7554 504.0402)"
   class="st21 st4 st23"
   id="text150">ocupadas</text>
<text
   transform="matrix(1 0 0 1 1084.6064 286.7668)"
   class="st21 st17 st20"
   id="text152">Camas</text>
<text
   transform="translate(1084.6064,642.767)"
   class="st21 st17 st20"
   id="text154">Vacunación</text>
<path
   class="st1"
   d="M951.3,1908.4H72.5c-10.5,0-19-8.5-19-19v-796.7c0-10.5,8.5-19,19-19h878.8c10.5,0,19,8.5,19,19v796.7  C970.3,1899.9,961.8,1908.4,951.3,1908.4z"
   id="path156" />
<line
   class="st31"
   x1="1083.4"
   y1="297"
   x2="1885.4"
   y2="297"
   id="line158" />
<line
   class="st31"
   x1="1083.4"
   y1="659.6"
   x2="1885.4"
   y2="659.6"
   id="line160" />
<g
   id="g168">
<rect
   x="1332"
   y="728.9"
   class="st30"
   width="{{{ vaccination.first.size }}}"
   height="81.1"
   id="rect162" />
	<rect
   x="1332"
   y="728.9"
   class="st28"
   width="{{{ vaccination.second.size }}}"
   height="81.1"
   id="rect164" />
	<path
   class="st6"
   d="M1244.3,774.5l0,5.3l73.2,9.2v-4.6l8.4,0l0,22.3c0,2.2,0.8,4.4,2.5,6c1.7,1.7,3.8,2.5,6,2.5l452.3,0.1   l2.9,24.1l8.3,0l0-24.1l0-20.5l83.9,0l6.1,20.5l13.4,0l0-45.3l0.1-45.3l-13.4,0l-6.1,20.5l-83.9,0l0-20.5l0-24.1l-8.3,0l-2.9,24   l-452.3,0c-2.2,0-4.4,0.8-6,2.5c-1.7,1.7-2.5,3.8-2.5,6l0,22.3l-8.4,0l0-4.6l-73.2,9.2l0,5.3l-134.5,0l-30.5,9.2L1244.3,774.5z    M1337.3,784.5l0-29l0-18.9l447.7,0.1l0,8.7l0,49.5l0,8.7l-36.5,0l0-29.1l-9,0l0,29.1l-36.7,0l0-29.1l-9,0l0,29.1l-36.7,0l0-29.1   l-9,0l0,29.1l-36.7,0l0-29.1l-9,0l0,29.1l-36.7,0l0-29.1l-9,0l0,29.1l-36.7,0l0-29.1l-9,0l0,29.1l-36.7,0l0-29.1l-9,0l0,29.1   l-36.7,0l0-29.1l-9,0l0,29.1l-36.7,0l0-29.1l-9,0l0,29.1l-36.8,0L1337.3,784.5z"
   id="path166" />
</g>
<line
   class="st12"
   x1="1447"
   y1="701"
   x2="1447"
   y2="805.5"
   id="line54" />
<g
   id="camita"
   transform="matrix(2.0371318,0,0,2.0371318,-1930.8685,-587.65369)">
		<path
   class="st6"
   d="m 1875.3,530.7 c 0,-6 -3.9,-6.9 -6.2,-6.9 h -63.8 c -2.3,0 -6.2,0.9 -6.2,6.9 v 9.1 h 76.2 z"
   id="path234" />
		<path
   class="st6"
   d="m 1786.1,541.8 h -9 v -31.9 h -6 v 61.9 h 6 v -16 h 96.2 v 16 h 6 v -30 z"
   id="path236" />
		<circle
   class="st6"
   cx="1787.1"
   cy="531.90002"
   r="8.3999996"
   id="circle238" />
	</g><circle
   class="st6"
   cx="377.2"
   cy="900.8"
   r="6.7"
   id="circle244" />
<circle
   class="st6"
   cx="611.7"
   cy="900.8"
   r="6.7"
   id="circle246" />
<circle
   class="st6"
   cx="846.3"
   cy="900.8"
   r="6.7"
   id="circle248" />
<circle
   class="st6"
   cx="847.4"
   cy="804.4"
   r="6.7"
   id="circle250" />
<circle
   class="st6"
   cx="847.4"
   cy="705.9"
   r="6.7"
   id="circle252" />
<circle
   class="st6"
   cx="847.4"
   cy="607.5"
   r="6.7"
   id="circle254" />
<circle
   class="st6"
   cx="847.4"
   cy="511"
   r="6.7"
   id="circle256" />
<circle
   class="st6"
   cx="847.4"
   cy="412.6"
   r="6.7"
   id="circle258" />
<!--
{{#if newCases.week3.up}}
   <polygon
      class="st19"
      points="647.2,300.3 665.9,300.3 645.3,320.9 652.3,328 673,307.4 673,326 683,326 683,300.3 683,290.3 673,290.3 647.2,290.3 "
      id="casesArrowDown3" />
{{else}}
   <polygon
      class="st19"
      points="647.2,300.3 665.9,300.3 645.3,320.9 652.3,328 673,307.4 673,326 683,326 683,300.3 683,290.3 673,290.3 647.2,290.3 "
      id="casesArrowDown3"
      transform="rotate(90,665.15,308.15)" />
{{/if}}
-->
<g
   id="g268">
	<path
   class="st26"
   d="M1763.9,1198.2h-80.1c-5.2,0-9.4-4.2-9.4-9.4v-31.5c0-5.2,4.2-9.4,9.4-9.4h80.1c5.2,0,9.4,4.2,9.4,9.4v31.5   C1773.4,1194,1769.1,1198.2,1763.9,1198.2z"
   id="path262" />
	<text
   transform="matrix(1 0 0 1 1703.9639 1185.7402)"
   class="st0 st17 st20"
   id="text264">{{ positivity.week3.value }}%</text>
</g>
<!--
{{#if positivity.week3.up}}
   <polygon
      class="st26"
      points="1629.2,1159.7 1647.9,1159.7 1627.3,1180.3 1634.3,1187.4 1655,1166.8 1655,1185.4 1665,1185.4 1665,1159.7 1665,1149.7 1655,1149.7 1629.2,1149.7 "
      id="testsArrow3" />
{{else}}
   <polygon
      class="st26"
      points="1629.2,1159.7 1647.9,1159.7 1627.3,1180.3 1634.3,1187.4 1655,1166.8 1655,1185.4 1665,1185.4 1665,1159.7 1665,1149.7 1655,1149.7 1629.2,1149.7 "
      id="testsArrow3" />
{{/if}}
{{#if positivity.week2.up}}
   <polygon
      class="st6"
      points="1435.8,1148.7 1414.9,1148.7 1414.9,1156.9 1430.1,1156.9 1413.3,1173.6 1419,1179.4 1435.8,1162.6   1435.8,1177.7 1443.9,1177.7 1443.9,1156.9 1443.9,1148.7 "
      id="testsArrow2" />
{{else}}
   <polygon
      class="st6"
      points="1435.8,1148.7 1414.9,1148.7 1414.9,1156.9 1430.1,1156.9 1413.3,1173.6 1419,1179.4 1435.8,1162.6   1435.8,1177.7 1443.9,1177.7 1443.9,1156.9 1443.9,1148.7 "
      id="testsArrow2" />
{{/if}}

{{#if positivity.week1.up}}
   <polygon
      class="st6"
      points="1199.6,1148.7 1178.7,1148.7 1178.7,1156.9 1193.8,1156.9 1177.1,1173.6 1182.8,1179.4 1199.6,1162.6   1199.6,1177.7 1207.7,1177.7 1207.7,1156.9 1207.7,1148.7 "
      id="testsArrow1" />
{{else}}
   <polygon
      class="st6"
      points="1199.6,1148.7 1178.7,1148.7 1178.7,1156.9 1193.8,1156.9 1177.1,1173.6 1182.8,1179.4 1199.6,1162.6   1199.6,1177.7 1207.7,1177.7 1207.7,1156.9 1207.7,1148.7 "
      id="testsArrow1" />
{{/if}}

{{#if newCases.week2.up}}
   <polygon
      class="st6"
      points="466.7,309.5 466.7,288.6 458.5,288.6 458.5,303.8 441.8,287 436.1,292.8 452.8,309.5 437.7,309.5   437.7,317.7 458.5,317.7 466.7,317.7 "
      id="polygon274" />
{{else}}
   <polygon
      class="st6"
      points="466.7,309.5 466.7,288.6 458.5,288.6 458.5,303.8 441.8,287 436.1,292.8 452.8,309.5 437.7,309.5   437.7,317.7 458.5,317.7 466.7,317.7 "
      id="polygon274" />
{{/if}}

{{#if newCases.week1.up}}
   <polygon
      class="st6"
      points="223.4,289.9 202.5,289.9 202.5,298 217.6,298 200.9,314.8 206.6,320.5 223.4,303.8 223.4,318.9   231.5,318.9 231.5,298 231.5,289.9 "
      id="polygon276" />
{{else}}
   <polygon
      class="st6"
      points="223.4,289.9 202.5,289.9 202.5,298 217.6,298 200.9,314.8 206.6,320.5 223.4,303.8 223.4,318.9   231.5,318.9 231.5,298 231.5,289.9 "
      id="polygon276" />
{{/if}}
-->

<text
   class="st32 st7 st8"
   id="text278"
   x="1137.0193"
   y="1495.0547">Máximo recomendado OMS (10%)</text>
<g
   id="g288">
	<g
   id="g286">
		<line
   class="st9"
   x1="1354.1"
   y1="1120.7"
   x2="1354.1"
   y2="1123.7"
   id="line280" />
		<line
   class="st10"
   x1="1354.1"
   y1="1129.8"
   x2="1354.1"
   y2="1754.8"
   id="line282" />
		<line
   class="st9"
   x1="1354.1"
   y1="1757.8"
   x2="1354.1"
   y2="1760.8"
   id="line284" />
	</g>
</g>
<g
   id="g298">
	<g
   id="g296">
		<line
   class="st9"
   x1="1588.5"
   y1="1120.7"
   x2="1588.5"
   y2="1123.7"
   id="line290" />
		<line
   class="st10"
   x1="1588.5"
   y1="1129.8"
   x2="1588.5"
   y2="1754.8"
   id="line292" />
		<line
   class="st9"
   x1="1588.5"
   y1="1757.8"
   x2="1588.5"
   y2="1760.8"
   id="line294" />
	</g>
</g>
<line
   class="st13"
   x1="1822.9"
   y1="1120.7"
   x2="1822.9"
   y2="1760.8"
   id="line300" />
<line
   class="st33"
   x1="1118.7"
   y1="1120.7"
   x2="1118.7"
   y2="1760.8"
   id="line302" />
<line
   class="st13"
   x1="1824.9"
   y1="1761.6"
   x2="1118.7"
   y2="1761.6"
   id="line304" />
<line
   class="st34"
   x1="1823.5"
   y1="1519.8"
   x2="1118.7"
   y2="1519.8"
   id="line306" />
<text
   transform="matrix(1 0 0 1 1848.7313 1286.1498)"
   id="text318"><tspan
     x="0"
     y="0"
     class="st6 st7 st14"
     id="tspan308">20</tspan><tspan
     x="0"
     y="122"
     class="st6 st7 st14"
     id="tspan310">15</tspan><tspan
     x="0"
     y="244"
     class="st6 st7 st14"
     id="tspan312">10</tspan><tspan
     x="0"
     y="366"
     class="st6 st7 st14"
     id="tspan314">5</tspan><tspan
     x="0"
     y="488"
     class="st6 st7 st14"
     id="tspan316">0</tspan></text>
<text
   transform="matrix(1 0 0 1 1227.3108 1140.4169)"
   class="st6 st7 st16"
   id="text320">Positivos</text>
<text
   transform="matrix(1 0 0 1 1462.3107 1140.4169)"
   class="st6 st7 st16"
   id="text322">Positivos</text>
<g
   id="g328">
	<path
   class="st6"
   d="M1292.1,1189.3h-61.4c-5.2,0-9.4-4.2-9.4-9.4v-22c0-5.2,4.2-9.4,9.4-9.4h61.4c5.2,0,9.4,4.2,9.4,9.4v22   C1301.5,1185.1,1297.3,1189.3,1292.1,1189.3z"
   id="path324" />
	<text
   transform="matrix(1 0 0 1 1244.6176 1178.3423)"
   class="st0 st17 st18"
   id="text326">{{ positivity.week1.value }}%</text>
</g>
<g
   id="g334">
	<path
   class="st6"
   d="M1526.5,1188.8h-61.4c-5.2,0-9.4-4.2-9.4-9.4v-22c0-5.2,4.2-9.4,9.4-9.4h61.4c5.2,0,9.4,4.2,9.4,9.4v22   C1536,1184.6,1531.7,1188.8,1526.5,1188.8z"
   id="path330" />
	<text
   transform="matrix(1 0 0 1 1471.42 1178.3423)"
   class="st0 st17 st18"
   id="text332">{{ positivity.week2.value }}%</text>
</g>
<text
   transform="matrix(1 0 0 1 1700.3107 1140.4169)"
   class="st6 st7 st16"
   id="text336">Positivos</text>
<text
   transform="translate(1352.9371,1867.5874)"
   class="st21 st17 st22"
   id="text338">PCR positivos</text>
<circle
   class="st6"
   cx="1354"
   cy="1760.9"
   r="6.7"
   id="circle340" />
<circle
   class="st6"
   cx="1589.3"
   cy="1760.9"
   r="6.7"
   id="circle342" />
<circle
   class="st6"
   cx="1823"
   cy="1760.9"
   r="6.7"
   id="circle344" />
<text
   transform="matrix(1 0 0 1 1126.5569 1807.3701)"
   class="st6 st7 st15"
   id="text348">{{ weeks.first.fromFormatted }}</text>
<text
   transform="matrix(1 0 0 1 1338.145 1807.3701)"
   class="st6 st7 st15"
   id="text346">{{ weeks.second.fromFormatted }}</text>
<text
   transform="matrix(1 0 0 1 1572.1449 1807.3701)"
   class="st6 st7 st15"
   id="text350">{{ weeks.third.fromFormatted }}</text>
<text
   transform="matrix(1 0 0 1 1776.0433 1807.3701)"
   class="st6 st7 st15"
   id="text352">{{ weeks.third.toFormatted }}</text>
<path
   class="st41"
   d="{{{ positivity.week1.graph }}}"
   id="path354" />
<path
   class="st42"
   d="{{{ positivity.week2.graph }}}"
   id="path356" />
<path
   class="st43"
   d="{{{ positivity.week3.graph }}}"
   id="path358" />
<circle
   class="st36"
   cx="1823.4"
   cy="{{{ positivity.week3.lastGraphValue }}}"
   r="6.7"
   id="circle360" />
<g
   id="g372">
	<path
   class="st6"
   d="M 544.4,181.8 H 315.7 c -7.1,0 -12.8,-5.8 -12.8,-12.8 v -16.7 c 0,-7.1 5.8,-12.8 12.8,-12.8 h 228.7 c 7.1,0 12.8,5.8 12.8,12.8 V 169 c 0.1,7 -5.7,12.8 -12.8,12.8 z"
   id="path362" />
	<text
   transform="matrix(1 0 0 1 60.1924 168.9683)"
   id="text370"><tspan
     x="0"
     y="0"
     class="st6 st4 st37"
     id="tspan364">COVID-19 en Chile</tspan><tspan
     x="254.9"
     y="0"
     class="st0 st38 st37"
     id="tspan366">@</tspan><tspan
     x="277.1"
     y="0"
     class="st0 st4 st37"
     id="tspan368">COVID19StatsCL</tspan></text>
</g>
<g
   id="g384">
	<path
   class="st3"
   d="M1924.9,181.9H1830c-12.5,0-22.5-10.1-22.5-22.5V64.4c0-12.5,10.1-22.5,22.5-22.5h94.9   c12.5,0,22.5,10.1,22.5,22.5v94.9C1947.4,171.8,1937.3,181.9,1924.9,181.9z"
   id="path374" />
	<text
   id="text380"
   x="1755.9944"
   y="104.53751"><tspan
     x="1755.9944"
     y="104.53751"
     class="st3 st7 st39"
     id="tspan376"
     style="text-align:end;text-anchor:end">{{ header.date.dayOfWeek }}</tspan><tspan
     x="1795.8944"
     y="153.53752"
     class="st3 st7 st39"
     id="tspan378"
     style="text-align:end;text-anchor:end">{{ header.date.month }}</tspan></text>
   {{#if header.date.dayOfMonthIsShort }}
	<text
   transform="matrix(1 0 0 1 1818.1021 142.7348)"
   class="st0 st4 st40"
   id="text382">0{{ header.date.dayOfMonth }}</text>
   {{else}}
	<text
   transform="matrix(1 0 0 1 1818.1021 142.7348)"
   class="st0 st4 st40"
   id="text153">{{ header.date.dayOfMonth }}</text>
   {{/if}}
</g>
<path
   class="st41"
   d="{{{ newCases.week1.graph }}}"
   id="path386" />
<path
   class="st42"
   d="{{{ newCases.week2.graph }}}"
   id="path388" />
<path
   class="st43"
   d="{{{ newCases.week3.graph }}}"
   id="path390" />
<circle
   class="st6"
   cx="142.6"
   cy="900.8"
   r="6.7"
   id="circle392" />
<circle
   class="st36"
   cx="847"
   cy="{{{ newCases.week3.lastGraphValue }}}"
   r="6.7"
   id="circle394" />
<g
   id="g402">
	<path
   class="st26"
   d="M793.4,1198.2h-80.1c-5.2,0-9.4-4.2-9.4-9.4v-31.5c0-5.2,4.2-9.4,9.4-9.4h80.1c5.2,0,9.4,4.2,9.4,9.4v31.5   C802.8,1194,798.6,1198.2,793.4,1198.2z"
   id="path396" />
	<text
   transform="matrix(1 0 0 1 731.4082 1185.7402)"
   class="st0 st17 st20"
   id="text398">{{ deaths.week3.value }}</text>
</g>
<!--
{{#if deaths.week3.up}}
   <polygon
      class="st26"
      points="658.7,1159.7 677.4,1159.7 656.7,1180.3 663.8,1187.4 684.4,1166.8 684.4,1185.4 694.5,1185.4 694.5,1159.7 694.5,1149.7 684.4,1149.7 658.7,1149.7 "
      id="deathsArrowUp3" />
{{else}}
   <polygon
      class="st26"
      points="658.7,1159.7 677.4,1159.7 656.7,1180.3 663.8,1187.4 684.4,1166.8 684.4,1185.4 694.5,1185.4 694.5,1159.7 694.5,1149.7 684.4,1149.7 658.7,1149.7 "
      id="deathsArrowUp3" />
{{/if}}
{{#if deaths.week2.up}}
   <polygon
      class="st6"
      points="462.1,1148.7 441.2,1148.7 441.2,1156.9 456.3,1156.9 439.6,1173.6 445.3,1179.4 462.1,1162.6   462.1,1177.7 470.2,1177.7 470.2,1156.9 470.2,1148.7 "
      id="deathsArrowUp2" />
{{else}}
   <polygon
      class="st6"
      points="462.1,1148.7 441.2,1148.7 441.2,1156.9 456.3,1156.9 439.6,1173.6 445.3,1179.4 462.1,1162.6   462.1,1177.7 470.2,1177.7 470.2,1156.9 470.2,1148.7 "
      id="deathsArrowUp2" />
{{/if}}
{{#if deaths.week3.up}}
   <polygon
      class="st19"
      points="232.8,1168.4 232.8,1147.5 224.7,1147.5 224.7,1162.6 208,1145.9 202.2,1151.6 219,1168.4   203.8,1168.4 203.8,1176.5 224.7,1176.5 232.8,1176.5 "
      id="deathsArrowDown1"
      style="fill:#808080;fill-opacity:1" />
{{else}}
   <polygon
      class="st19"
      points="232.8,1168.4 232.8,1147.5 224.7,1147.5 224.7,1162.6 208,1145.9 202.2,1151.6 219,1168.4   203.8,1168.4 203.8,1176.5 224.7,1176.5 232.8,1176.5 "
      id="deathsArrowDown1"
      style="fill:#808080;fill-opacity:1" />
{{/if}}
-->
<g
   id="g418">
	<g
   id="g416">
		<line
   class="st9"
   x1="379.6"
   y1="1120.7"
   x2="379.6"
   y2="1123.7"
   id="line410" />
		<line
   class="st10"
   x1="379.6"
   y1="1129.8"
   x2="379.6"
   y2="1754.8"
   id="line412" />
		<line
   class="st9"
   x1="379.6"
   y1="1757.8"
   x2="379.6"
   y2="1760.8"
   id="line414" />
	</g>
</g>
<g
   id="g428">
	<g
   id="g426">
		<line
   class="st9"
   x1="143.6"
   y1="1120.7"
   x2="143.6"
   y2="1123.7"
   id="line420" />
		<line
   class="st10"
   x1="143.6"
   y1="1129.8"
   x2="143.6"
   y2="1754.8"
   id="line422" />
		<line
   class="st9"
   x1="143.6"
   y1="1757.8"
   x2="143.6"
   y2="1760.8"
   id="line424" />
	</g>
</g>
<g
   id="g438">
	<g
   id="g436">
		<line
   class="st9"
   x1="614"
   y1="1120.7"
   x2="614"
   y2="1123.7"
   id="line430" />
		<line
   class="st10"
   x1="614"
   y1="1129.8"
   x2="614"
   y2="1754.8"
   id="line432" />
		<line
   class="st9"
   x1="614"
   y1="1757.8"
   x2="614"
   y2="1760.8"
   id="line434" />
	</g>
</g>
<line
   class="st13"
   x1="848.4"
   y1="1120.7"
   x2="848.4"
   y2="1760.8"
   id="line440" />
<line
   class="st13"
   x1="850.2"
   y1="1761.6"
   x2="144.2"
   y2="1761.6"
   id="line442" />
<text
   transform="matrix(1 0 0 1 874.1735 1284.1478)"
   id="text456"><tspan
     x="0"
     y="0"
     class="st6 st7 st14"
     id="tspan444">100</tspan><tspan
     x="0"
     y="97"
     class="st6 st7 st14"
     id="tspan446">80</tspan><tspan
     x="0"
     y="194"
     class="st6 st7 st14"
     id="tspan448">60</tspan><tspan
     x="0"
     y="291"
     class="st6 st7 st14"
     id="tspan450">40</tspan><tspan
     x="0"
     y="388"
     class="st6 st7 st14"
     id="tspan452">10</tspan><tspan
     x="0"
     y="485"
     class="st6 st7 st14"
     id="tspan454">0</tspan></text>
<text
   transform="matrix(1 0 0 1 256.5136 1140.4149)"
   class="st6 st7 st16"
   id="text458">muertes</text>
<text
   transform="matrix(1 0 0 1 493.5136 1140.4149)"
   class="st6 st7 st16"
   id="text460">muertes</text>
<g
   id="g466">
	<path
   class="st6"
   d="M313.5,1189.3h-61.4c-5.2,0-9.4-4.2-9.4-9.4v-22c0-5.2,4.2-9.4,9.4-9.4h61.4c5.2,0,9.4,4.2,9.4,9.4v22   C322.9,1185.1,318.7,1189.3,313.5,1189.3z"
   id="path462" />
	<text
   transform="matrix(1 0 0 1 265.2537 1178.3403)"
   class="st0 st17 st18"
   id="text464">{{ deaths.week1.value }}</text>
</g>
<g
   id="g472">
	<path
   class="st6"
   d="M549.8,1189.3h-61.4c-5.2,0-9.4-4.2-9.4-9.4v-22c0-5.2,4.2-9.4,9.4-9.4h61.4c5.2,0,9.4,4.2,9.4,9.4v22   C559.2,1185.1,555,1189.3,549.8,1189.3z"
   id="path468" />
	<text
   transform="matrix(1 0 0 1 504.8621 1178.3403)"
   class="st0 st17 st18"
   id="text470">{{ deaths.week2.value }}</text>
</g>
<text
   transform="matrix(1 0 0 1 733.5136 1140.4149)"
   class="st6 st7 st16"
   id="text474">muertes</text>
<circle
   class="st6"
   cx="379.5"
   cy="1760.9"
   r="6.7"
   id="circle476" />
<circle
   class="st6"
   cx="614.8"
   cy="1760.9"
   r="6.7"
   id="circle478" />
<circle
   class="st6"
   cx="848.5"
   cy="1760.9"
   r="6.7"
   id="circle480" />
<circle
   class="st6"
   cx="848.6"
   cy="1658.7"
   r="6.7"
   id="circle482" />
<circle
   class="st6"
   cx="848.6"
   cy="1562.3"
   r="6.7"
   id="circle484" />
<circle
   class="st6"
   cx="848.6"
   cy="1465.9"
   r="6.7"
   id="circle486" />
<circle
   class="st6"
   cx="848.6"
   cy="1369.4"
   r="6.7"
   id="circle488" />
<circle
   class="st6"
   cx="848.6"
   cy="1273"
   r="6.7"
   id="circle490" />
<path
   class="st41"
   d="{{{ deaths.week1.graph }}}"
   id="path205" />
<path
   class="st42"
   d="{{{ deaths.week2.graph }}}"
   id="path207" />
<path
   class="st43"
   d="{{{ deaths.week3.graph }}}"
   id="path209" />


<circle
   class="st36"
   cx="848.4"
   cy="{{{ deaths.week3.lastGraphValue }}}"
   r="6.7"
   id="circle496" />
<text
   transform="matrix(1 0 0 1 141.0502 1807.3701)"
   class="st6 st7 st15"
   id="text500">{{ weeks.first.fromFormatted }}</text>
<text
   transform="matrix(1 0 0 1 346.7399 1807.3701)"
   class="st6 st7 st15"
   id="text498">{{ weeks.second.fromFormatted }}</text>
<text
   transform="matrix(1 0 0 1 580.7399 1807.3701)"
   class="st6 st7 st15"
   id="text502">{{ weeks.third.fromFormatted }}</text>
<text
   transform="matrix(1 0 0 1 796.7399 1807.3701)"
   class="st6 st7 st15"
   id="text504">{{ weeks.third.toFormatted }}</text>
<text
   transform="translate(424.0202,1867.5405)"
   class="st21 st17 st22"
   id="text506">Muertes</text>
<circle
   class="st6"
   cx="144"
   cy="1755.1"
   r="6.7"
   id="circle508" />
<g
   id="g514">
	<g
   id="g512">
		<path
   class="st30"
   d="M1087.3,791.6c-0.1-0.1-0.2-0.2-0.3-0.3c-4.2-2.2-7.2-6.3-8-11.2c-0.8,4.6-3.6,8.6-7.5,10.9    c-0.1,0.1-0.2,0.2-0.3,0.2c-4.7,2.7-7.8,7.7-7.8,13.5c0,8.6,7,15.6,15.6,15.6s15.6-7,15.6-15.6    C1094.6,799.2,1091.6,794.3,1087.3,791.6z"
   id="path510" />
	</g>
</g>
<polygon
   class="st25"
   points="1426.1,696.4 1450.2,710.3 1450.2,682.5 "
   id="polygon516" />
<circle
   class="st6"
   cx="1823.2"
   cy="1640.1"
   r="6.7"
   id="circle518" />
<circle
   class="st6"
   cx="1823.2"
   cy="1519.4"
   r="6.7"
   id="circle520" />
<circle
   class="st6"
   cx="1823.2"
   cy="1398.6"
   r="6.7"
   id="circle522" />
<circle
   class="st6"
   cx="1823.2"
   cy="1277.8"
   r="6.7"
   id="circle524" />
<circle
   class="st6"
   cx="1823.2"
   cy="1760.9"
   r="6.7"
   id="circle526" />
<text
   transform="matrix(1 0 0 1 55.2766 1953.5405)"
   class="st6 st17 st22"
   id="text528">*</text>
</svg>
