<?xml version="1.0" encoding="utf-8"?>
<!-- Generator: Adobe Illustrator 22.0.1, SVG Export Plug-In . SVG Version: 6.00 Build 0)  -->
<svg version="1.1" id="Capa_1" xmlns="http://www.w3.org/2000/svg" xmlns:xlink="http://www.w3.org/1999/xlink" x="0px" y="0px"
	 width="2000px" height="2000px" viewBox="0 0 2000 2000" style="enable-background:new 0 0 2000 2000;" xml:space="preserve">
<style type="text/css">
	.st0{fill:#F15A24;}
	.st1{fill:#808080;}
	.st2{fill:#29ABE2;}
	.st3{fill:#F7931E;}
	.st4{fill:#FFFFFF;stroke:#4D4D4D;stroke-width:3.7658;stroke-miterlimit:10;}
	.st5{fill:#CCCCCC;}
	.st6{fill:#4D4D4D;}
	.st7{fill:#333333;}
	.st8{font-family:'Roboto-Regular';}
	.st9{font-size:49px;}
	.st10{fill:#F6F6F6;}
	.st11{font-family:'Roboto-Medium';}
	.st12{font-size:90px;}
</style>
<g>
	<g>
		<path class="st0" d="M209.3,124.6c0-6-3.9-6.9-6.2-6.9h-63.8c-2.3,0-6.2,0.9-6.2,6.9v9.1h76.2V124.6z"/>
		<path class="st0" d="M120.2,135.8h-9v-31.9h-6v61.9h6v-16h96.2v16h6v-30H120.2z"/>
		<circle class="st0" cx="121.1" cy="125.8" r="8.4"/>
	</g>
	<g>
		<path class="st0" d="M337.3,124.6c0-6-3.9-6.9-6.2-6.9h-63.8c-2.3,0-6.2,0.9-6.2,6.9v9.1h76.2V124.6z"/>
		<path class="st0" d="M248.2,135.8h-9v-31.9h-6v61.9h6v-16h96.2v16h6v-30H248.2z"/>
		<circle class="st0" cx="249.1" cy="125.8" r="8.4"/>
	</g>
	<g>
		<path class="st0" d="M209.3,201.7c0-6-3.9-6.9-6.2-6.9h-63.8c-2.3,0-6.2,0.9-6.2,6.9v9.1h76.2V201.7z"/>
		<path class="st0" d="M120.2,212.8h-9v-31.9h-6v61.9h6v-16h96.2v16h6v-30H120.2z"/>
		<circle class="st0" cx="121.1" cy="202.8" r="8.4"/>
	</g>
	<g>
		<path class="st0" d="M337.3,201.7c0-6-3.9-6.9-6.2-6.9h-63.8c-2.3,0-6.2,0.9-6.2,6.9v9.1h76.2V201.7z"/>
		<path class="st0" d="M248.2,212.8h-9v-31.9h-6v61.9h6v-16h96.2v16h6v-30H248.2z"/>
		<circle class="st0" cx="249.1" cy="202.8" r="8.4"/>
	</g>
	<g>
		<path class="st0" d="M209.3,278.7c0-6-3.9-6.9-6.2-6.9h-63.8c-2.3,0-6.2,0.9-6.2,6.9v9.1h76.2V278.7z"/>
		<path class="st0" d="M120.2,289.8h-9v-31.9h-6v61.9h6v-16h96.2v16h6v-30H120.2z"/>
		<circle class="st0" cx="121.1" cy="279.9" r="8.4"/>
	</g>
	<g>
		<path class="st0" d="M337.3,278.7c0-6-3.9-6.9-6.2-6.9h-63.8c-2.3,0-6.2,0.9-6.2,6.9v9.1h76.2V278.7z"/>
		<path class="st0" d="M248.2,289.8h-9v-31.9h-6v61.9h6v-16h96.2v16h6v-30H248.2z"/>
		<circle class="st0" cx="249.1" cy="279.9" r="8.4"/>
	</g>
	<g>
		<path class="st0" d="M465.3,124.6c0-6-3.9-6.9-6.2-6.9h-63.8c-2.3,0-6.2,0.9-6.2,6.9v9.1h76.2V124.6z"/>
		<path class="st0" d="M376.1,135.8h-9v-31.9h-6v61.9h6v-16h96.2v16h6v-30H376.1z"/>
		<circle class="st0" cx="377.1" cy="125.8" r="8.4"/>
	</g>
	<g>
		<path class="st0" d="M465.3,201.7c0-6-3.9-6.9-6.2-6.9h-63.8c-2.3,0-6.2,0.9-6.2,6.9v9.1h76.2V201.7z"/>
		<path class="st0" d="M376.1,212.8h-9v-31.9h-6v61.9h6v-16h96.2v16h6v-30H376.1z"/>
		<circle class="st0" cx="377.1" cy="202.8" r="8.4"/>
	</g>
	<g>
		<path class="st0" d="M465.3,278.7c0-6-3.9-6.9-6.2-6.9h-63.8c-2.3,0-6.2,0.9-6.2,6.9v9.1h76.2V278.7z"/>
		<path class="st0" d="M376.1,289.8h-9v-31.9h-6v61.9h6v-16h96.2v16h6v-30H376.1z"/>
		<circle class="st0" cx="377.1" cy="279.9" r="8.4"/>
	</g>
</g>
<g>
	<g>
		<path class="st1" d="M677.3,124.6c0-6-3.9-6.9-6.2-6.9h-63.8c-2.3,0-6.2,0.9-6.2,6.9v9.1h76.2V124.6z"/>
		<path class="st1" d="M588.2,135.8h-9v-31.9h-6v61.9h6v-16h96.2v16h6v-30H588.2z"/>
		<circle class="st1" cx="589.1" cy="125.8" r="8.4"/>
	</g>
	<g>
		<path class="st1" d="M805.3,124.6c0-6-3.9-6.9-6.2-6.9h-63.8c-2.3,0-6.2,0.9-6.2,6.9v9.1h76.2V124.6z"/>
		<path class="st1" d="M716.2,135.8h-9v-31.9h-6v61.9h6v-16h96.2v16h6v-30H716.2z"/>
		<circle class="st1" cx="717.1" cy="125.8" r="8.4"/>
	</g>
	<g>
		<path class="st1" d="M677.3,201.7c0-6-3.9-6.9-6.2-6.9h-63.8c-2.3,0-6.2,0.9-6.2,6.9v9.1h76.2V201.7z"/>
		<path class="st1" d="M588.2,212.8h-9v-31.9h-6v61.9h6v-16h96.2v16h6v-30H588.2z"/>
		<circle class="st1" cx="589.1" cy="202.8" r="8.4"/>
	</g>
	<g>
		<path class="st1" d="M805.3,201.7c0-6-3.9-6.9-6.2-6.9h-63.8c-2.3,0-6.2,0.9-6.2,6.9v9.1h76.2V201.7z"/>
		<path class="st1" d="M716.2,212.8h-9v-31.9h-6v61.9h6v-16h96.2v16h6v-30H716.2z"/>
		<circle class="st1" cx="717.1" cy="202.8" r="8.4"/>
	</g>
	<g>
		<path class="st1" d="M677.3,278.7c0-6-3.9-6.9-6.2-6.9h-63.8c-2.3,0-6.2,0.9-6.2,6.9v9.1h76.2V278.7z"/>
		<path class="st1" d="M588.2,289.8h-9v-31.9h-6v61.9h6v-16h96.2v16h6v-30H588.2z"/>
		<circle class="st1" cx="589.1" cy="279.9" r="8.4"/>
	</g>
	<g>
		<path class="st1" d="M805.3,278.7c0-6-3.9-6.9-6.2-6.9h-63.8c-2.3,0-6.2,0.9-6.2,6.9v9.1h76.2V278.7z"/>
		<path class="st1" d="M716.2,289.8h-9v-31.9h-6v61.9h6v-16h96.2v16h6v-30H716.2z"/>
		<circle class="st1" cx="717.1" cy="279.9" r="8.4"/>
	</g>
	<g>
		<path class="st1" d="M933.3,124.6c0-6-3.9-6.9-6.2-6.9h-63.8c-2.3,0-6.2,0.9-6.2,6.9v9.1h76.2V124.6z"/>
		<path class="st1" d="M844.1,135.8h-9v-31.9h-6v61.9h6v-16h96.2v16h6v-30H844.1z"/>
		<circle class="st1" cx="845.1" cy="125.8" r="8.4"/>
	</g>
	<g>
		<path class="st1" d="M933.3,201.7c0-6-3.9-6.9-6.2-6.9h-63.8c-2.3,0-6.2,0.9-6.2,6.9v9.1h76.2V201.7z"/>
		<path class="st1" d="M844.1,212.8h-9v-31.9h-6v61.9h6v-16h96.2v16h6v-30H844.1z"/>
		<circle class="st1" cx="845.1" cy="202.8" r="8.4"/>
	</g>
	<g>
		<path class="st1" d="M933.3,278.7c0-6-3.9-6.9-6.2-6.9h-63.8c-2.3,0-6.2,0.9-6.2,6.9v9.1h76.2V278.7z"/>
		<path class="st1" d="M844.1,289.8h-9v-31.9h-6v61.9h6v-16h96.2v16h6v-30H844.1z"/>
		<circle class="st1" cx="845.1" cy="279.9" r="8.4"/>
	</g>
</g>
<path class="st0" d="M245.9,464.8h-80.1c-5.2,0-9.4-4.2-9.4-9.4v-31.5c0-5.2,4.2-9.4,9.4-9.4h80.1c5.2,0,9.4,4.2,9.4,9.4v31.5
	C255.4,460.6,251.1,464.8,245.9,464.8z"/>
<polygon class="st0" points="137,416.3 111.2,416.3 111.2,426.3 129.9,426.3 109.3,446.9 116.3,454 137,433.4 137,452 147,452 
	147,426.3 147,416.3 "/>
<path class="st1" d="M441.9,464.8h-80.1c-5.2,0-9.4-4.2-9.4-9.4v-31.5c0-5.2,4.2-9.4,9.4-9.4h80.1c5.2,0,9.4,4.2,9.4,9.4v31.5
	C451.4,460.6,447.1,464.8,441.9,464.8z"/>
<polygon class="st1" points="333,416.3 307.2,416.3 307.2,426.3 325.9,426.3 305.3,446.9 312.3,454 333,433.4 333,452 343,452 
	343,426.3 343,416.3 "/>
<path class="st2" d="M245.9,550.8h-80.1c-5.2,0-9.4-4.2-9.4-9.4v-31.5c0-5.2,4.2-9.4,9.4-9.4h80.1c5.2,0,9.4,4.2,9.4,9.4v31.5
	C255.4,546.6,251.1,550.8,245.9,550.8z"/>
<polygon class="st2" points="137,502.3 111.2,502.3 111.2,512.3 129.9,512.3 109.3,532.9 116.3,540 137,519.4 137,538 147,538 
	147,512.3 147,502.3 "/>
<path class="st2" d="M441.9,550.8h-80.1c-5.2,0-9.4-4.2-9.4-9.4v-31.5c0-5.2,4.2-9.4,9.4-9.4h80.1c5.2,0,9.4,4.2,9.4,9.4v31.5
	C451.4,546.6,447.1,550.8,441.9,550.8z"/>
<polygon class="st2" points="333,502.3 307.2,502.3 307.2,512.3 325.9,512.3 305.3,532.9 312.3,540 333,519.4 333,538 343,538 
	343,512.3 343,502.3 "/>
<path class="st0" d="M245.9,649.8h-80.1c-5.2,0-9.4-4.2-9.4-9.4v-31.5c0-5.2,4.2-9.4,9.4-9.4h80.1c5.2,0,9.4,4.2,9.4,9.4v31.5
	C255.4,645.6,251.1,649.8,245.9,649.8z"/>
<polygon class="st0" points="147,625.5 147,599.7 137,599.7 137,618.4 116.3,597.7 109.3,604.8 129.9,625.5 111.2,625.5 
	111.2,635.5 137,635.5 147,635.5 "/>
<path class="st3" d="M651.9,464.8h-80.1c-5.2,0-9.4-4.2-9.4-9.4v-31.5c0-5.2,4.2-9.4,9.4-9.4h80.1c5.2,0,9.4,4.2,9.4,9.4v31.5
	C661.4,460.6,657.1,464.8,651.9,464.8z"/>
<polygon class="st3" points="543,416.3 517.2,416.3 517.2,426.3 535.9,426.3 515.3,446.9 522.3,454 543,433.4 543,452 553,452 
	553,426.3 553,416.3 "/>
<path class="st3" d="M651.9,649.8h-80.1c-5.2,0-9.4-4.2-9.4-9.4v-31.5c0-5.2,4.2-9.4,9.4-9.4h80.1c5.2,0,9.4,4.2,9.4,9.4v31.5
	C661.4,645.6,657.1,649.8,651.9,649.8z"/>
<polygon class="st3" points="553,625.5 553,599.7 543,599.7 543,618.4 522.3,597.7 515.3,604.8 535.9,625.5 517.2,625.5 
	517.2,635.5 543,635.5 553,635.5 "/>
<path class="st1" d="M441.9,649.8h-80.1c-5.2,0-9.4-4.2-9.4-9.4v-31.5c0-5.2,4.2-9.4,9.4-9.4h80.1c5.2,0,9.4,4.2,9.4,9.4v31.5
	C451.4,645.6,447.1,649.8,441.9,649.8z"/>
<polygon class="st1" points="343,625.5 343,599.7 333,599.7 333,618.4 312.3,597.7 305.3,604.8 325.9,625.5 307.2,625.5 
	307.2,635.5 333,635.5 343,635.5 "/>
<path class="st2" d="M245.9,729.8h-80.1c-5.2,0-9.4-4.2-9.4-9.4v-31.5c0-5.2,4.2-9.4,9.4-9.4h80.1c5.2,0,9.4,4.2,9.4,9.4v31.5
	C255.4,725.6,251.1,729.8,245.9,729.8z"/>
<polygon class="st2" points="147,705.5 147,679.7 137,679.7 137,698.4 116.3,677.7 109.3,684.8 129.9,705.5 111.2,705.5 
	111.2,715.5 137,715.5 147,715.5 "/>
<polygon class="st0" points="912,416.3 886.2,416.3 886.2,426.3 904.9,426.3 884.3,446.9 891.3,454 912,433.4 912,452 922,452 
	922,426.3 922,416.3 "/>
<polygon class="st2" points="912,502.3 886.2,502.3 886.2,512.3 904.9,512.3 884.3,532.9 891.3,540 912,519.4 912,538 922,538 
	922,512.3 922,502.3 "/>
<polygon class="st0" points="922,625.5 922,599.7 912,599.7 912,618.4 891.3,597.7 884.3,604.8 904.9,625.5 886.2,625.5 
	886.2,635.5 912,635.5 922,635.5 "/>
<polygon class="st2" points="922,705.5 922,679.7 912,679.7 912,698.4 891.3,677.7 884.3,684.8 904.9,705.5 886.2,705.5 
	886.2,715.5 912,715.5 922,715.5 "/>
<path class="st2" d="M441.9,729.8h-80.1c-5.2,0-9.4-4.2-9.4-9.4v-31.5c0-5.2,4.2-9.4,9.4-9.4h80.1c5.2,0,9.4,4.2,9.4,9.4v31.5
	C451.4,725.6,447.1,729.8,441.9,729.8z"/>
<polygon class="st2" points="343,705.5 343,679.7 333,679.7 333,698.4 312.3,677.7 305.3,684.8 325.9,705.5 307.2,705.5 
	307.2,715.5 333,715.5 343,715.5 "/>
<polygon class="st1" points="1040,416.3 1014.2,416.3 1014.2,426.3 1032.9,426.3 1012.3,446.9 1019.3,454 1040,433.4 1040,452 
	1050,452 1050,426.3 1050,416.3 "/>
<polygon class="st2" points="1040,502.3 1014.2,502.3 1014.2,512.3 1032.9,512.3 1012.3,532.9 1019.3,540 1040,519.4 1040,538 
	1050,538 1050,512.3 1050,502.3 "/>
<polygon class="st1" points="1050,625.5 1050,599.7 1040,599.7 1040,618.4 1019.3,597.7 1012.3,604.8 1032.9,625.5 1014.2,625.5 
	1014.2,635.5 1040,635.5 1050,635.5 "/>
<polygon class="st2" points="1050,705.5 1050,679.7 1040,679.7 1040,698.4 1019.3,677.7 1012.3,684.8 1032.9,705.5 1014.2,705.5 
	1014.2,715.5 1040,715.5 1050,715.5 "/>
<circle class="st4" cx="1557" cy="349.8" r="6.7"/>
<g>
	<path class="st1" d="M1154.3,128.6c0-6-3.9-6.9-6.2-6.9h-63.8c-2.3,0-6.2,0.9-6.2,6.9v9.1h76.2V128.6z"/>
	<path class="st1" d="M1065.1,139.8h-9v-31.9h-6v61.9h6v-16h96.2v16h6v-30H1065.1z"/>
	<circle class="st1" cx="1066.1" cy="129.8" r="8.4"/>
</g>
<g>
	<path class="st0" d="M1346.3,128.6c0-6-3.9-6.9-6.2-6.9h-63.8c-2.3,0-6.2,0.9-6.2,6.9v9.1h76.2V128.6z"/>
	<path class="st0" d="M1257.1,139.8h-9v-31.9h-6v61.9h6v-16h96.2v16h6v-30H1257.1z"/>
	<circle class="st0" cx="1258.1" cy="129.8" r="8.4"/>
</g>
<g>
	<path class="st1" d="M426,899.3h-61.4c-5.2,0-9.4-4.2-9.4-9.4v-22c0-5.2,4.2-9.4,9.4-9.4H426c5.2,0,9.4,4.2,9.4,9.4v22
		C435.5,895.1,431.3,899.3,426,899.3z"/>
</g>
<polygon class="st1" points="337.4,859.9 316.5,859.9 316.5,868 331.6,868 314.9,884.8 320.6,890.5 337.4,873.8 337.4,888.9 
	345.5,888.9 345.5,868 345.5,859.9 "/>
<g>
	<path class="st0" d="M260,899.3h-61.4c-5.2,0-9.4-4.2-9.4-9.4v-22c0-5.2,4.2-9.4,9.4-9.4H260c5.2,0,9.4,4.2,9.4,9.4v22
		C269.5,895.1,265.3,899.3,260,899.3z"/>
</g>
<polygon class="st0" points="171.4,859.9 150.5,859.9 150.5,868 165.6,868 148.9,884.8 154.6,890.5 171.4,873.8 171.4,888.9 
	179.5,888.9 179.5,868 179.5,859.9 "/>
<g>
	<path class="st2" d="M426,1003.3h-61.4c-5.2,0-9.4-4.2-9.4-9.4v-22c0-5.2,4.2-9.4,9.4-9.4H426c5.2,0,9.4,4.2,9.4,9.4v22
		C435.5,999.1,431.3,1003.3,426,1003.3z"/>
</g>
<polygon class="st2" points="337.4,963.9 316.5,963.9 316.5,972 331.6,972 314.9,988.8 320.6,994.5 337.4,977.8 337.4,992.9 
	345.5,992.9 345.5,972 345.5,963.9 "/>
<g>
	<path class="st2" d="M260,1003.3h-61.4c-5.2,0-9.4-4.2-9.4-9.4v-22c0-5.2,4.2-9.4,9.4-9.4H260c5.2,0,9.4,4.2,9.4,9.4v22
		C269.5,999.1,265.3,1003.3,260,1003.3z"/>
</g>
<polygon class="st2" points="171.4,963.9 150.5,963.9 150.5,972 165.6,972 148.9,988.8 154.6,994.5 171.4,977.8 171.4,992.9 
	179.5,992.9 179.5,972 179.5,963.9 "/>
<g>
	<path class="st1" d="M426,1099.3h-61.4c-5.2,0-9.4-4.2-9.4-9.4v-22c0-5.2,4.2-9.4,9.4-9.4H426c5.2,0,9.4,4.2,9.4,9.4v22
		C435.5,1095.1,431.3,1099.3,426,1099.3z"/>
</g>
<polygon class="st1" points="345.5,1079.5 345.5,1058.6 337.4,1058.6 337.4,1073.8 320.6,1057 314.9,1062.8 331.6,1079.5 
	316.5,1079.5 316.5,1087.7 337.4,1087.7 345.5,1087.7 "/>
<g>
	<path class="st0" d="M260,1099.3h-61.4c-5.2,0-9.4-4.2-9.4-9.4v-22c0-5.2,4.2-9.4,9.4-9.4H260c5.2,0,9.4,4.2,9.4,9.4v22
		C269.5,1095.1,265.3,1099.3,260,1099.3z"/>
</g>
<polygon class="st0" points="179.5,1079.5 179.5,1058.6 171.4,1058.6 171.4,1073.8 154.6,1057 148.9,1062.8 165.6,1079.5 
	150.5,1079.5 150.5,1087.7 171.4,1087.7 179.5,1087.7 "/>
<g>
	<path class="st3" d="M648,899.3h-61.4c-5.2,0-9.4-4.2-9.4-9.4v-22c0-5.2,4.2-9.4,9.4-9.4H648c5.2,0,9.4,4.2,9.4,9.4v22
		C657.5,895.1,653.3,899.3,648,899.3z"/>
</g>
<polygon class="st3" points="559.4,859.9 538.5,859.9 538.5,868 553.6,868 536.9,884.8 542.6,890.5 559.4,873.8 559.4,888.9 
	567.5,888.9 567.5,868 567.5,859.9 "/>
<g>
	<path class="st3" d="M648,1099.3h-61.4c-5.2,0-9.4-4.2-9.4-9.4v-22c0-5.2,4.2-9.4,9.4-9.4H648c5.2,0,9.4,4.2,9.4,9.4v22
		C657.5,1095.1,653.3,1099.3,648,1099.3z"/>
</g>
<polygon class="st3" points="567.5,1079.5 567.5,1058.6 559.4,1058.6 559.4,1073.8 542.6,1057 536.9,1062.8 553.6,1079.5 
	538.5,1079.5 538.5,1087.7 559.4,1087.7 567.5,1087.7 "/>
<g>
	<path class="st2" d="M426,1187.3h-61.4c-5.2,0-9.4-4.2-9.4-9.4v-22c0-5.2,4.2-9.4,9.4-9.4H426c5.2,0,9.4,4.2,9.4,9.4v22
		C435.5,1183.1,431.3,1187.3,426,1187.3z"/>
</g>
<polygon class="st2" points="345.5,1167.5 345.5,1146.6 337.4,1146.6 337.4,1161.8 320.6,1145 314.9,1150.8 331.6,1167.5 
	316.5,1167.5 316.5,1175.7 337.4,1175.7 345.5,1175.7 "/>
<g>
	<path class="st2" d="M260,1187.3h-61.4c-5.2,0-9.4-4.2-9.4-9.4v-22c0-5.2,4.2-9.4,9.4-9.4H260c5.2,0,9.4,4.2,9.4,9.4v22
		C269.5,1183.1,265.3,1187.3,260,1187.3z"/>
</g>
<polygon class="st2" points="179.5,1167.5 179.5,1146.6 171.4,1146.6 171.4,1161.8 154.6,1145 148.9,1150.8 165.6,1167.5 
	150.5,1167.5 150.5,1175.7 171.4,1175.7 179.5,1175.7 "/>
<polygon class="st1" points="1079.4,859.9 1058.5,859.9 1058.5,868 1073.6,868 1056.9,884.8 1062.6,890.5 1079.4,873.8 
	1079.4,888.9 1087.5,888.9 1087.5,868 1087.5,859.9 "/>
<polygon class="st0" points="913.4,859.9 892.5,859.9 892.5,868 907.6,868 890.9,884.8 896.6,890.5 913.4,873.8 913.4,888.9 
	921.5,888.9 921.5,868 921.5,859.9 "/>
<polygon class="st2" points="1079.4,963.9 1058.5,963.9 1058.5,972 1073.6,972 1056.9,988.8 1062.6,994.5 1079.4,977.8 
	1079.4,992.9 1087.5,992.9 1087.5,972 1087.5,963.9 "/>
<polygon class="st2" points="913.4,963.9 892.5,963.9 892.5,972 907.6,972 890.9,988.8 896.6,994.5 913.4,977.8 913.4,992.9 
	921.5,992.9 921.5,972 921.5,963.9 "/>
<polygon class="st1" points="1087.5,1079.5 1087.5,1058.6 1079.4,1058.6 1079.4,1073.8 1062.6,1057 1056.9,1062.8 1073.6,1079.5 
	1058.5,1079.5 1058.5,1087.7 1079.4,1087.7 1087.5,1087.7 "/>
<polygon class="st0" points="921.5,1079.5 921.5,1058.6 913.4,1058.6 913.4,1073.8 896.6,1057 890.9,1062.8 907.6,1079.5 
	892.5,1079.5 892.5,1087.7 913.4,1087.7 921.5,1087.7 "/>
<polygon class="st3" points="1241,416.3 1215.2,416.3 1215.2,426.3 1233.9,426.3 1213.3,446.9 1220.3,454 1241,433.4 1241,452 
	1251,452 1251,426.3 1251,416.3 "/>
<polygon class="st3" points="1251,625.5 1251,599.7 1241,599.7 1241,618.4 1220.3,597.7 1213.3,604.8 1233.9,625.5 1215.2,625.5 
	1215.2,635.5 1241,635.5 1251,635.5 "/>
<polygon class="st3" points="1242.4,859.9 1221.5,859.9 1221.5,868 1236.6,868 1219.9,884.8 1225.6,890.5 1242.4,873.8 
	1242.4,888.9 1250.5,888.9 1250.5,868 1250.5,859.9 "/>
<polygon class="st3" points="1250.5,1079.5 1250.5,1058.6 1242.4,1058.6 1242.4,1073.8 1225.6,1057 1219.9,1062.8 1236.6,1079.5 
	1221.5,1079.5 1221.5,1087.7 1242.4,1087.7 1250.5,1087.7 "/>
<polygon class="st2" points="1087.5,1167.5 1087.5,1146.6 1079.4,1146.6 1079.4,1161.8 1062.6,1145 1056.9,1150.8 1073.6,1167.5 
	1058.5,1167.5 1058.5,1175.7 1079.4,1175.7 1087.5,1175.7 "/>
<polygon class="st2" points="921.5,1167.5 921.5,1146.6 913.4,1146.6 913.4,1161.8 896.6,1145 890.9,1150.8 907.6,1167.5 
	892.5,1167.5 892.5,1175.7 913.4,1175.7 921.5,1175.7 "/>
<g>
	<g>
		<path class="st1" d="M304.3,1433.5l0,5.3l73.2,9.2v-4.6l8.4,0l0,22.3c0,2.2,0.8,4.4,2.5,6c1.7,1.7,3.8,2.5,6,2.5l452.3,0.1
			l2.9,24.1l8.3,0l0-24.1l0-20.5l83.9,0l6.1,20.5l13.4,0l0-45.3l0.1-45.3l-13.4,0l-6.1,20.5l-83.9,0l0-20.5l0-24.1l-8.3,0l-2.9,24
			l-452.3,0c-2.2,0-4.4,0.8-6,2.5c-1.7,1.7-2.5,3.8-2.5,6l0,22.3l-8.4,0l0-4.6l-73.2,9.2l0,5.3l-134.5,0l-30.5,9.2L304.3,1433.5z
			 M397.3,1443.5l0-29l0-18.9l447.7,0.1l0,8.7l0,49.5l0,8.7l-36.5,0l0-29.1l-9,0l0,29.1l-36.7,0l0-29.1l-9,0l0,29.1l-36.7,0l0-29.1
			l-9,0l0,29.1l-36.7,0l0-29.1l-9,0l0,29.1l-36.7,0l0-29.1l-9,0l0,29.1l-36.7,0l0-29.1l-9,0l0,29.1l-36.7,0l0-29.1l-9,0l0,29.1
			l-36.7,0l0-29.1l-9,0l0,29.1l-36.7,0l0-29.1l-9,0l0,29.1l-36.8,0L397.3,1443.5z"/>
	</g>
	<g>
		<g>
			<path class="st5" d="M147.3,1450.6c-0.1-0.1-0.2-0.2-0.3-0.3c-4.2-2.2-7.2-6.3-8-11.2c-0.8,4.6-3.6,8.6-7.5,10.9
				c-0.1,0.1-0.2,0.2-0.3,0.2c-4.7,2.7-7.8,7.7-7.8,13.5c0,8.6,7,15.6,15.6,15.6c8.6,0,15.6-7,15.6-15.6
				C154.6,1458.2,151.6,1453.3,147.3,1450.6z"/>
		</g>
	</g>
</g>
<g>
	<g>
		<path class="st6" d="M304.3,1673.5l0,5.3l73.2,9.2v-4.6l8.4,0l0,22.3c0,2.2,0.8,4.4,2.5,6c1.7,1.7,3.8,2.5,6,2.5l452.3,0.1
			l2.9,24.1l8.3,0l0-24.1l0-20.5l83.9,0l6.1,20.5l13.4,0l0-45.3l0.1-45.3l-13.4,0l-6.1,20.5l-83.9,0l0-20.5l0-24.1l-8.3,0l-2.9,24
			l-452.3,0c-2.2,0-4.4,0.8-6,2.5c-1.7,1.7-2.5,3.8-2.5,6l0,22.3l-8.4,0l0-4.6l-73.2,9.2l0,5.3l-134.5,0l-30.5,9.2L304.3,1673.5z
			 M397.3,1683.5l0-29l0-18.9l447.7,0.1l0,8.7l0,49.5l0,8.7l-36.5,0l0-29.1l-9,0l0,29.1l-36.7,0l0-29.1l-9,0l0,29.1l-36.7,0l0-29.1
			l-9,0l0,29.1l-36.7,0l0-29.1l-9,0l0,29.1l-36.7,0l0-29.1l-9,0l0,29.1l-36.7,0l0-29.1l-9,0l0,29.1l-36.7,0l0-29.1l-9,0l0,29.1
			l-36.7,0l0-29.1l-9,0l0,29.1l-36.7,0l0-29.1l-9,0l0,29.1l-36.8,0L397.3,1683.5z"/>
	</g>
	<g>
		<g>
			<path class="st5" d="M147.3,1690.6c-0.1-0.1-0.2-0.2-0.3-0.3c-4.2-2.2-7.2-6.3-8-11.2c-0.8,4.6-3.6,8.6-7.5,10.9
				c-0.1,0.1-0.2,0.2-0.3,0.2c-4.7,2.7-7.8,7.7-7.8,13.5c0,8.6,7,15.6,15.6,15.6c8.6,0,15.6-7,15.6-15.6
				C154.6,1698.2,151.6,1693.3,147.3,1690.6z"/>
		</g>
	</g>
</g>
<g>
	<path class="st7" d="M1714.5,1011h-94.9c-12.5,0-22.5-10.1-22.5-22.5v-94.9c0-12.5,10.1-22.5,22.5-22.5h94.9
		c12.5,0,22.5,10.1,22.5,22.5v94.9C1737,1000.9,1726.9,1011,1714.5,1011z"/>
	<text transform="matrix(1 0 0 1 1499.0082 930.178)"><tspan x="0" y="0" class="st7 st8 st9">día</tspan><tspan x="-22.3" y="49" class="st7 st8 st9">mes</tspan></text>
	<text transform="matrix(1 0 0 1 1617.6816 971.8402)" class="st10 st11 st12">00</text>
</g>
<g>
	<path class="st1" d="M1714.5,1233.7h-94.9c-12.5,0-22.5-10.1-22.5-22.5v-94.9c0-12.5,10.1-22.5,22.5-22.5h94.9
		c12.5,0,22.5,10.1,22.5,22.5v94.9C1737,1223.6,1726.9,1233.7,1714.5,1233.7z"/>
	<text transform="matrix(1 0 0 1 1499.0082 1152.8446)"><tspan x="0" y="0" class="st7 st8 st9">día</tspan><tspan x="-22.3" y="49" class="st7 st8 st9">mes</tspan></text>
	<text transform="matrix(1 0 0 1 1617.6816 1194.5068)" class="st10 st11 st12">00</text>
</g>
<g>
	<path class="st2" d="M1714.5,1456.3h-94.9c-12.5,0-22.5-10.1-22.5-22.5v-94.9c0-12.5,10.1-22.5,22.5-22.5h94.9
		c12.5,0,22.5,10.1,22.5,22.5v94.9C1737,1446.2,1726.9,1456.3,1714.5,1456.3z"/>
	<text transform="matrix(1 0 0 1 1499.0082 1375.5114)"><tspan x="0" y="0" class="st7 st8 st9">día</tspan><tspan x="-22.3" y="49" class="st7 st8 st9">mes</tspan></text>
	<text transform="matrix(1 0 0 1 1617.6816 1417.1736)" class="st10 st11 st12">00</text>
</g>
<g>
	<path class="st0" d="M1714.5,1679h-94.9c-12.5,0-22.5-10.1-22.5-22.5v-94.9c0-12.5,10.1-22.5,22.5-22.5h94.9
		c12.5,0,22.5,10.1,22.5,22.5v94.9C1737,1668.9,1726.9,1679,1714.5,1679z"/>
	<text transform="matrix(1 0 0 1 1499.0082 1598.178)"><tspan x="0" y="0" class="st7 st8 st9">día</tspan><tspan x="-22.3" y="49" class="st7 st8 st9">mes</tspan></text>
	<text transform="matrix(1 0 0 1 1617.6816 1639.8403)" class="st10 st11 st12">00</text>
</g>
</svg>
